<svg xmlns="http://www.w3.org/2000/svg" id="svg3967" version="1.1" viewBox="0 0 286.41 392.5"><defs id="defs3969"><clipPath id="clipPath3638" clipPathUnits="userSpaceOnUse"><path id="path3640" d="m2.0608 2.0515v332.9c0 15.963 12.805 28.769 28.769 28.769h89.374c15.963 0 28.769 12.805 28.769 28.769 0-15.963 12.933-28.769 28.896-28.769h77.739c15.963 0 28.768-12.805 28.769-28.769v-332.9z" style="stroke:#000;stroke-width:4.0915;fill:none"/></clipPath><clipPath id="clipPath3642" clipPathUnits="userSpaceOnUse"><path id="path3644" d="m2.0608 2.0515v332.9c0 15.963 12.805 28.769 28.769 28.769h89.374c15.963 0 28.769 12.805 28.769 28.769 0-15.963 12.933-28.769 28.896-28.769h77.739c15.963 0 28.768-12.805 28.769-28.769v-332.9z" style="stroke:#000;stroke-width:4.0915;fill:none"/></clipPath><clipPath id="clipPath3646" clipPathUnits="userSpaceOnUse"><path id="path3648" d="m2.0608 2.0515v332.9c0 15.963 12.805 28.769 28.769 28.769h89.374c15.963 0 28.769 12.805 28.769 28.769 0-15.963 12.933-28.769 28.896-28.769h77.739c15.963 0 28.768-12.805 28.769-28.769v-332.9z" style="stroke:#000;stroke-width:4.0915;fill:none"/></clipPath><clipPath id="clipPath3650" clipPathUnits="userSpaceOnUse"><path id="path3652" d="m2.0608 2.0515v332.9c0 15.963 12.805 28.769 28.769 28.769h89.374c15.963 0 28.769 12.805 28.769 28.769 0-15.963 12.933-28.769 28.896-28.769h77.739c15.963 0 28.768-12.805 28.769-28.769v-332.9z" style="stroke:#000;stroke-width:4.0915;fill:none"/></clipPath><clipPath id="clipPath3654" clipPathUnits="userSpaceOnUse"><path id="path3656" d="m2.0608 2.0515v332.9c0 15.963 12.805 28.769 28.769 28.769h89.374c15.963 0 28.769 12.805 28.769 28.769 0-15.963 12.933-28.769 28.896-28.769h77.739c15.963 0 28.768-12.805 28.769-28.769v-332.9z" style="stroke:#000;stroke-width:4.0915;fill:none"/></clipPath><clipPath id="clipPath3658" clipPathUnits="userSpaceOnUse"><path id="path3660" d="m2.0608 2.0515v332.9c0 15.963 12.805 28.769 28.769 28.769h89.374c15.963 0 28.769 12.805 28.769 28.769 0-15.963 12.933-28.769 28.896-28.769h77.739c15.963 0 28.768-12.805 28.769-28.769v-332.9z" style="stroke:#000;stroke-width:4.0915;fill:none"/></clipPath><clipPath id="clipPath3662" clipPathUnits="userSpaceOnUse"><path id="path3664" d="m2.0608 2.0515v332.9c0 15.963 12.805 28.769 28.769 28.769h89.374c15.963 0 28.769 12.805 28.769 28.769 0-15.963 12.933-28.769 28.896-28.769h77.739c15.963 0 28.768-12.805 28.769-28.769v-332.9z" style="stroke:#000;stroke-width:4.0915;fill:none"/></clipPath><clipPath id="clipPath3666" clipPathUnits="userSpaceOnUse"><path id="path3668" d="m2.0608 2.0515v332.9c0 15.963 12.805 28.769 28.769 28.769h89.374c15.963 0 28.769 12.805 28.769 28.769 0-15.963 12.933-28.769 28.896-28.769h77.739c15.963 0 28.768-12.805 28.769-28.769v-332.9z" style="stroke:#000;stroke-width:4.0915;fill:none"/></clipPath><clipPath id="clipPath3670" clipPathUnits="userSpaceOnUse"><path id="path3672" d="m2.0608 2.0515v332.9c0 15.963 12.805 28.769 28.769 28.769h89.374c15.963 0 28.769 12.805 28.769 28.769 0-15.963 12.933-28.769 28.896-28.769h77.739c15.963 0 28.768-12.805 28.769-28.769v-332.9z" style="stroke:#000;stroke-width:4.0915;fill:none"/></clipPath><clipPath id="clipPath3674" clipPathUnits="userSpaceOnUse"><path id="path3676" d="m2.0608 2.0515v332.9c0 15.963 12.805 28.769 28.769 28.769h89.374c15.963 0 28.769 12.805 28.769 28.769 0-15.963 12.933-28.769 28.896-28.769h77.739c15.963 0 28.768-12.805 28.769-28.769v-332.9z" style="stroke:#000;stroke-width:4.0915;fill:none"/></clipPath><clipPath id="clipPath3678" clipPathUnits="userSpaceOnUse"><path id="path3680" d="m2.0608 2.0515v332.9c0 15.963 12.805 28.769 28.769 28.769h89.374c15.963 0 28.769 12.805 28.769 28.769 0-15.963 12.933-28.769 28.896-28.769h77.739c15.963 0 28.768-12.805 28.769-28.769v-332.9z" style="stroke:#000;stroke-width:4.0915;fill:none"/></clipPath><clipPath id="clipPath3682" clipPathUnits="userSpaceOnUse"><path id="path3684" d="m2.0608 2.0515v332.9c0 15.963 12.805 28.769 28.769 28.769h89.374c15.963 0 28.769 12.805 28.769 28.769 0-15.963 12.933-28.769 28.896-28.769h77.739c15.963 0 28.768-12.805 28.769-28.769v-332.9z" style="stroke:#000;stroke-width:4.0915;fill:none"/></clipPath><clipPath id="clipPath3686" clipPathUnits="userSpaceOnUse"><path id="path3688" d="m2.0608 2.0515v332.9c0 15.963 12.805 28.769 28.769 28.769h89.374c15.963 0 28.769 12.805 28.769 28.769 0-15.963 12.933-28.769 28.896-28.769h77.739c15.963 0 28.768-12.805 28.769-28.769v-332.9z" style="stroke:#000;stroke-width:4.0915;fill:none"/></clipPath><clipPath id="clipPath3690" clipPathUnits="userSpaceOnUse"><path id="path3692" d="m2.0608 2.0515v332.9c0 15.963 12.805 28.769 28.769 28.769h89.374c15.963 0 28.769 12.805 28.769 28.769 0-15.963 12.933-28.769 28.896-28.769h77.739c15.963 0 28.768-12.805 28.769-28.769v-332.9z" style="stroke:#000;stroke-width:4.0915;fill:none"/></clipPath><clipPath id="clipPath3694" clipPathUnits="userSpaceOnUse"><path id="path3696" d="m2.0608 2.0515v332.9c0 15.963 12.805 28.769 28.769 28.769h89.374c15.963 0 28.769 12.805 28.769 28.769 0-15.963 12.933-28.769 28.896-28.769h77.739c15.963 0 28.768-12.805 28.769-28.769v-332.9z" style="stroke:#000;stroke-width:4.0915;fill:none"/></clipPath><clipPath id="clipPath3698" clipPathUnits="userSpaceOnUse"><path id="path3700" d="m2.0608 2.0515v332.9c0 15.963 12.805 28.769 28.769 28.769h89.374c15.963 0 28.769 12.805 28.769 28.769 0-15.963 12.933-28.769 28.896-28.769h77.739c15.963 0 28.768-12.805 28.769-28.769v-332.9z" style="stroke:#000;stroke-width:4.0915;fill:none"/></clipPath><clipPath id="clipPath3702" clipPathUnits="userSpaceOnUse"><path id="path3704" d="m2.0608 2.0515v332.9c0 15.963 12.805 28.769 28.769 28.769h89.374c15.963 0 28.769 12.805 28.769 28.769 0-15.963 12.933-28.769 28.896-28.769h77.739c15.963 0 28.768-12.805 28.769-28.769v-332.9z" style="stroke:#000;stroke-width:4.0915;fill:none"/></clipPath><clipPath id="clipPath3706" clipPathUnits="userSpaceOnUse"><path id="path3708" d="m2.0608 2.0515v332.9c0 15.963 12.805 28.769 28.769 28.769h89.374c15.963 0 28.769 12.805 28.769 28.769 0-15.963 12.933-28.769 28.896-28.769h77.739c15.963 0 28.768-12.805 28.769-28.769v-332.9z" style="stroke:#000;stroke-width:4.0915;fill:none"/></clipPath><clipPath id="clipPath3710" clipPathUnits="userSpaceOnUse"><path id="path3712" d="m2.0608 2.0515v332.9c0 15.963 12.805 28.769 28.769 28.769h89.374c15.963 0 28.769 12.805 28.769 28.769 0-15.963 12.933-28.769 28.896-28.769h77.739c15.963 0 28.768-12.805 28.769-28.769v-332.9z" style="stroke:#000;stroke-width:4.0915;fill:none"/></clipPath><clipPath id="clipPath3714" clipPathUnits="userSpaceOnUse"><path id="path3716" d="m2.0608 2.0515v332.9c0 15.963 12.805 28.769 28.769 28.769h89.374c15.963 0 28.769 12.805 28.769 28.769 0-15.963 12.933-28.769 28.896-28.769h77.739c15.963 0 28.768-12.805 28.769-28.769v-332.9z" style="stroke:#000;stroke-width:4.0915;fill:none"/></clipPath><clipPath id="clipPath3718" clipPathUnits="userSpaceOnUse"><path id="path3720" d="m2.0608 2.0515v332.9c0 15.963 12.805 28.769 28.769 28.769h89.374c15.963 0 28.769 12.805 28.769 28.769 0-15.963 12.933-28.769 28.896-28.769h77.739c15.963 0 28.768-12.805 28.769-28.769v-332.9z" style="stroke:#000;stroke-width:4.0915;fill:none"/></clipPath><clipPath id="clipPath3722" clipPathUnits="userSpaceOnUse"><path id="path3724" d="m2.0608 2.0515v332.9c0 15.963 12.805 28.769 28.769 28.769h89.374c15.963 0 28.769 12.805 28.769 28.769 0-15.963 12.933-28.769 28.896-28.769h77.739c15.963 0 28.768-12.805 28.769-28.769v-332.9z" style="stroke:#000;stroke-width:4.0915;fill:none"/></clipPath><clipPath id="clipPath3726" clipPathUnits="userSpaceOnUse"><path id="path3728" d="m2.0608 2.0515v332.9c0 15.963 12.805 28.769 28.769 28.769h89.374c15.963 0 28.769 12.805 28.769 28.769 0-15.963 12.933-28.769 28.896-28.769h77.739c15.963 0 28.768-12.805 28.769-28.769v-332.9z" style="stroke:#000;stroke-width:4.0915;fill:none"/></clipPath><clipPath id="clipPath3730" clipPathUnits="userSpaceOnUse"><path id="path3732" d="m2.0608 2.0515v332.9c0 15.963 12.805 28.769 28.769 28.769h89.374c15.963 0 28.769 12.805 28.769 28.769 0-15.963 12.933-28.769 28.896-28.769h77.739c15.963 0 28.768-12.805 28.769-28.769v-332.9z" style="stroke:#000;stroke-width:4.0915;fill:none"/></clipPath><clipPath id="clipPath3734" clipPathUnits="userSpaceOnUse"><path id="path3736" d="m2.0608 2.0515v332.9c0 15.963 12.805 28.769 28.769 28.769h89.374c15.963 0 28.769 12.805 28.769 28.769 0-15.963 12.933-28.769 28.896-28.769h77.739c15.963 0 28.768-12.805 28.769-28.769v-332.9z" style="stroke:#000;stroke-width:4.0915;fill:none"/></clipPath><clipPath id="clipPath3738" clipPathUnits="userSpaceOnUse"><path id="path3740" d="m2.0608 2.0515v332.9c0 15.963 12.805 28.769 28.769 28.769h89.374c15.963 0 28.769 12.805 28.769 28.769 0-15.963 12.933-28.769 28.896-28.769h77.739c15.963 0 28.768-12.805 28.769-28.769v-332.9z" style="stroke:#000;stroke-width:4.0915;fill:none"/></clipPath><clipPath id="clipPath3742" clipPathUnits="userSpaceOnUse"><path id="path3744" d="m2.0608 2.0515v332.9c0 15.963 12.805 28.769 28.769 28.769h89.374c15.963 0 28.769 12.805 28.769 28.769 0-15.963 12.933-28.769 28.896-28.769h77.739c15.963 0 28.768-12.805 28.769-28.769v-332.9z" style="stroke:#000;stroke-width:4.0915;fill:none"/></clipPath><clipPath id="clipPath3746" clipPathUnits="userSpaceOnUse"><path id="path3748" d="m2.0608 2.0515v332.9c0 15.963 12.805 28.769 28.769 28.769h89.374c15.963 0 28.769 12.805 28.769 28.769 0-15.963 12.933-28.769 28.896-28.769h77.739c15.963 0 28.768-12.805 28.769-28.769v-332.9z" style="stroke:#000;stroke-width:4.0915;fill:none"/></clipPath><clipPath id="clipPath3750" clipPathUnits="userSpaceOnUse"><path id="path3752" d="m2.0608 2.0515v332.9c0 15.963 12.805 28.769 28.769 28.769h89.374c15.963 0 28.769 12.805 28.769 28.769 0-15.963 12.933-28.769 28.896-28.769h77.739c15.963 0 28.768-12.805 28.769-28.769v-332.9z" style="stroke:#000;stroke-width:4.0915;fill:none"/></clipPath><clipPath id="clipPath3754" clipPathUnits="userSpaceOnUse"><path id="path3756" d="m2.0608 2.0515v332.9c0 15.963 12.805 28.769 28.769 28.769h89.374c15.963 0 28.769 12.805 28.769 28.769 0-15.963 12.933-28.769 28.896-28.769h77.739c15.963 0 28.768-12.805 28.769-28.769v-332.9z" style="stroke:#000;stroke-width:4.0915;fill:none"/></clipPath><clipPath id="clipPath3758" clipPathUnits="userSpaceOnUse"><path id="path3760" d="m2.0608 2.0515v332.9c0 15.963 12.805 28.769 28.769 28.769h89.374c15.963 0 28.769 12.805 28.769 28.769 0-15.963 12.933-28.769 28.896-28.769h77.739c15.963 0 28.768-12.805 28.769-28.769v-332.9z" style="stroke:#000;stroke-width:4.0915;fill:none"/></clipPath><clipPath id="clipPath3762" clipPathUnits="userSpaceOnUse"><path id="path3764" d="m2.0608 2.0515v332.9c0 15.963 12.805 28.769 28.769 28.769h89.374c15.963 0 28.769 12.805 28.769 28.769 0-15.963 12.933-28.769 28.896-28.769h77.739c15.963 0 28.768-12.805 28.769-28.769v-332.9z" style="stroke:#000;stroke-width:4.0915;fill:none"/></clipPath><clipPath id="clipPath3766" clipPathUnits="userSpaceOnUse"><path id="path3768" d="m2.0608 2.0515v332.9c0 15.963 12.805 28.769 28.769 28.769h89.374c15.963 0 28.769 12.805 28.769 28.769 0-15.963 12.933-28.769 28.896-28.769h77.739c15.963 0 28.768-12.805 28.769-28.769v-332.9z" style="stroke:#000;stroke-width:4.0915;fill:none"/></clipPath><clipPath id="clipPath3770" clipPathUnits="userSpaceOnUse"><path id="path3772" d="m2.0608 2.0515v332.9c0 15.963 12.805 28.769 28.769 28.769h89.374c15.963 0 28.769 12.805 28.769 28.769 0-15.963 12.933-28.769 28.896-28.769h77.739c15.963 0 28.768-12.805 28.769-28.769v-332.9z" style="stroke:#000;stroke-width:4.0915;fill:none"/></clipPath><clipPath id="clipPath3774" clipPathUnits="userSpaceOnUse"><path id="path3776" d="m2.0608 2.0515v332.9c0 15.963 12.805 28.769 28.769 28.769h89.374c15.963 0 28.769 12.805 28.769 28.769 0-15.963 12.933-28.769 28.896-28.769h77.739c15.963 0 28.768-12.805 28.769-28.769v-332.9z" style="stroke:#000;stroke-width:4.0915;fill:none"/></clipPath><clipPath id="clipPath3778" clipPathUnits="userSpaceOnUse"><path id="path3780" d="m2.0608 2.0515v332.9c0 15.963 12.805 28.769 28.769 28.769h89.374c15.963 0 28.769 12.805 28.769 28.769 0-15.963 12.933-28.769 28.896-28.769h77.739c15.963 0 28.768-12.805 28.769-28.769v-332.9z" style="stroke:#000;stroke-width:4.0915;fill:none"/></clipPath><clipPath id="clipPath3782" clipPathUnits="userSpaceOnUse"><path id="path3784" d="m2.0608 2.0515v332.9c0 15.963 12.805 28.769 28.769 28.769h89.374c15.963 0 28.769 12.805 28.769 28.769 0-15.963 12.933-28.769 28.896-28.769h77.739c15.963 0 28.768-12.805 28.769-28.769v-332.9z" style="stroke:#000;stroke-width:4.0915;fill:none"/></clipPath><clipPath id="clipPath3786" clipPathUnits="userSpaceOnUse"><path id="path3788" d="m2.0608 2.0515v332.9c0 15.963 12.805 28.769 28.769 28.769h89.374c15.963 0 28.769 12.805 28.769 28.769 0-15.963 12.933-28.769 28.896-28.769h77.739c15.963 0 28.768-12.805 28.769-28.769v-332.9z" style="stroke:#000;stroke-width:4.0915;fill:none"/></clipPath><clipPath id="clipPath3790" clipPathUnits="userSpaceOnUse"><path id="path3792" d="m2.0608 2.0515v332.9c0 15.963 12.805 28.769 28.769 28.769h89.374c15.963 0 28.769 12.805 28.769 28.769 0-15.963 12.933-28.769 28.896-28.769h77.739c15.963 0 28.768-12.805 28.769-28.769v-332.9z" style="stroke:#000;stroke-width:4.0915;fill:none"/></clipPath><clipPath id="clipPath3794" clipPathUnits="userSpaceOnUse"><path id="path3796" d="m2.0608 2.0515v332.9c0 15.963 12.805 28.769 28.769 28.769h89.374c15.963 0 28.769 12.805 28.769 28.769 0-15.963 12.933-28.769 28.896-28.769h77.739c15.963 0 28.768-12.805 28.769-28.769v-332.9z" style="stroke:#000;stroke-width:4.0915;fill:none"/></clipPath><clipPath id="clipPath3798" clipPathUnits="userSpaceOnUse"><path id="path3800" d="m2.0608 2.0515v332.9c0 15.963 12.805 28.769 28.769 28.769h89.374c15.963 0 28.769 12.805 28.769 28.769 0-15.963 12.933-28.769 28.896-28.769h77.739c15.963 0 28.768-12.805 28.769-28.769v-332.9z" style="stroke:#000;stroke-width:4.0915;fill:none"/></clipPath><clipPath id="clipPath3802" clipPathUnits="userSpaceOnUse"><path id="path3804" d="m2.0608 2.0515v332.9c0 15.963 12.805 28.769 28.769 28.769h89.374c15.963 0 28.769 12.805 28.769 28.769 0-15.963 12.933-28.769 28.896-28.769h77.739c15.963 0 28.768-12.805 28.769-28.769v-332.9z" style="stroke:#000;stroke-width:4.0915;fill:none"/></clipPath><clipPath id="clipPath3806" clipPathUnits="userSpaceOnUse"><path id="path3808" d="m2.0608 2.0515v332.9c0 15.963 12.805 28.769 28.769 28.769h89.374c15.963 0 28.769 12.805 28.769 28.769 0-15.963 12.933-28.769 28.896-28.769h77.739c15.963 0 28.768-12.805 28.769-28.769v-332.9z" style="stroke:#000;stroke-width:4.0915;fill:none"/></clipPath><clipPath id="clipPath3810" clipPathUnits="userSpaceOnUse"><path id="path3812" d="m2.0608 2.0515v332.9c0 15.963 12.805 28.769 28.769 28.769h89.374c15.963 0 28.769 12.805 28.769 28.769 0-15.963 12.933-28.769 28.896-28.769h77.739c15.963 0 28.768-12.805 28.769-28.769v-332.9z" style="stroke:#000;stroke-width:4.0915;fill:none"/></clipPath><clipPath id="clipPath3814" clipPathUnits="userSpaceOnUse"><path id="path3816" d="m2.0608 2.0515v332.9c0 15.963 12.805 28.769 28.769 28.769h89.374c15.963 0 28.769 12.805 28.769 28.769 0-15.963 12.933-28.769 28.896-28.769h77.739c15.963 0 28.768-12.805 28.769-28.769v-332.9z" style="stroke:#000;stroke-width:4.0915;fill:none"/></clipPath><clipPath id="clipPath3818" clipPathUnits="userSpaceOnUse"><path id="path3820" d="m2.0608 2.0515v332.9c0 15.963 12.805 28.769 28.769 28.769h89.374c15.963 0 28.769 12.805 28.769 28.769 0-15.963 12.933-28.769 28.896-28.769h77.739c15.963 0 28.768-12.805 28.769-28.769v-332.9z" style="stroke:#000;stroke-width:4.0915;fill:none"/></clipPath></defs><g id="g3331" style="display:none"><path id="path3333" d="m2.0608 2.0514v332.9c0 15.963 12.805 28.769 28.769 28.769h89.374c15.963 0 28.769 12.805 28.769 28.769 0-15.963 12.933-28.769 28.896-28.769h77.739c15.963 0 28.768-12.805 28.769-28.769v-332.9z" style="display:inline;fill:#1a1a1a"/></g><g id="layer2"><path id="path14854-3" d="m-109.17 455.33h535" clip-path="url(#clipPath3818)" style="stroke:#1a1a1a;stroke-width:2;fill:#0f0"/><path id="path14854-1-1" d="m-109.17 430.33h535" clip-path="url(#clipPath3814)" style="stroke:#1a1a1a;stroke-width:2;fill:#0f0"/><path id="path14854-7-9" d="m-109.17 405.33h535" clip-path="url(#clipPath3810)" style="stroke:#1a1a1a;stroke-width:2;fill:#0f0"/><path id="path14854-11-86" d="m-109.17 380.33h535" clip-path="url(#clipPath3806)" style="stroke:#1a1a1a;stroke-width:2;fill:#0f0"/><path id="path14854-5-5" d="m-109.17 355.33h535" clip-path="url(#clipPath3802)" style="stroke:#1a1a1a;stroke-width:2;fill:#0f0"/><path id="path14854-2-0" d="m-109.17 330.33h535" clip-path="url(#clipPath3798)" style="stroke:#1a1a1a;stroke-width:2;fill:#0f0"/><path id="path14854-76-2" d="m-109.17 305.33h535" clip-path="url(#clipPath3794)" style="stroke:#1a1a1a;stroke-width:2;fill:#0f0"/><path id="path14854-14-8" d="m-109.17 280.33h535" clip-path="url(#clipPath3790)" style="stroke:#1a1a1a;stroke-width:2;fill:#0f0"/><path id="path14854-23-6" d="m-109.17 255.33h535" clip-path="url(#clipPath3786)" style="stroke:#1a1a1a;stroke-width:2;fill:#0f0"/><path id="path14854-22-0" d="m-109.17 230.33h535" clip-path="url(#clipPath3782)" style="stroke:#1a1a1a;stroke-width:2;fill:#0f0"/><path id="path14854-22-1-2" d="m-109.17 205.33h535" clip-path="url(#clipPath3778)" style="stroke:#1a1a1a;stroke-width:2;fill:#0f0"/><path id="path14854-22-6-4" d="m-109.17 480.33h535" clip-path="url(#clipPath3774)" style="stroke:#1a1a1a;stroke-width:2;fill:#0f0"/><path id="path14854-57-8" d="m-109.17 180.33h535" clip-path="url(#clipPath3770)" style="stroke:#1a1a1a;stroke-width:2;fill:#0f0"/><path id="path14854-22-6-1-9" d="m-109.17 205.33h535" clip-path="url(#clipPath3766)" style="stroke:#1a1a1a;stroke-width:2;fill:#0f0"/><path id="path14854-22-1-3-7-9" d="m-109.17 480.33h535" clip-path="url(#clipPath3762)" style="stroke:#1a1a1a;stroke-width:2;fill:#0f0"/><path id="path14854-3-7" d="m-109.17 155.36h535" clip-path="url(#clipPath3758)" style="stroke:#1a1a1a;stroke-width:2;fill:#0f0"/><path id="path14854-1-1-8" d="m-109.17 130.36h535" clip-path="url(#clipPath3754)" style="stroke:#1a1a1a;stroke-width:2;fill:#0f0"/><path id="path14854-7-9-8" d="m-109.17 105.36h535" clip-path="url(#clipPath3750)" style="stroke:#1a1a1a;stroke-width:2;fill:#0f0"/><path id="path14854-11-86-2" d="m-109.17 80.361h535" clip-path="url(#clipPath3746)" style="stroke:#1a1a1a;stroke-width:2;fill:#0f0"/><path id="path14854-5-5-9" d="m-109.17 55.361h535" clip-path="url(#clipPath3742)" style="stroke:#1a1a1a;stroke-width:2;fill:#0f0"/><path id="path14854-2-0-1" d="m-109.17 30.361h535" clip-path="url(#clipPath3738)" style="stroke:#1a1a1a;stroke-width:2;fill:#0f0"/><path id="path14854-76-2-3" d="m-109.17 5.3609h535" clip-path="url(#clipPath3734)" style="stroke:#1a1a1a;stroke-width:2;fill:#0f0"/><path id="path14854-14-8-5" d="m-109.17-19.639h535" clip-path="url(#clipPath3730)" style="stroke:#1a1a1a;stroke-width:2;fill:#0f0"/><path id="path14854-3-6" d="m405.8 515.36v-535" clip-path="url(#clipPath3726)" style="stroke:#1a1a1a;stroke-width:2;fill:#0f0"/><path id="path14854-1-1-1" d="m380.8 515.36v-535" clip-path="url(#clipPath3722)" style="stroke:#1a1a1a;stroke-width:2;fill:#0f0"/><path id="path14854-7-9-5" d="m355.8 515.36v-535" clip-path="url(#clipPath3718)" style="stroke:#1a1a1a;stroke-width:2;fill:#0f0"/><path id="path14854-11-86-4" d="m330.8 515.36v-535" clip-path="url(#clipPath3714)" style="stroke:#1a1a1a;stroke-width:2;fill:#0f0"/><path id="path14854-5-5-2" d="m305.8 515.36v-535" clip-path="url(#clipPath3710)" style="stroke:#1a1a1a;stroke-width:2;fill:#0f0"/><path id="path14854-2-0-0" d="m280.8 515.36v-535" clip-path="url(#clipPath3706)" style="stroke:#1a1a1a;stroke-width:2;fill:#0f0"/><path id="path14854-76-2-9" d="m255.8 515.36v-535" clip-path="url(#clipPath3702)" style="stroke:#1a1a1a;stroke-width:2;fill:#0f0"/><path id="path14854-14-8-7" d="m230.8 515.36v-535" clip-path="url(#clipPath3698)" style="stroke:#1a1a1a;stroke-width:2;fill:#0f0"/><path id="path14854-23-6-3" d="m205.8 515.36v-535" clip-path="url(#clipPath3694)" style="stroke:#1a1a1a;stroke-width:2;fill:#0f0"/><path id="path14854-22-0-7" d="m180.8 515.36v-535" clip-path="url(#clipPath3690)" style="stroke:#1a1a1a;stroke-width:2;fill:#0f0"/><path id="path14854-22-1-2-2" d="m155.8 515.36v-535" clip-path="url(#clipPath3686)" style="stroke:#1a1a1a;stroke-width:2;fill:#0f0"/><path id="path14854-22-6-4-6" d="m430.8 515.36v-535" clip-path="url(#clipPath3682)" style="stroke:#1a1a1a;stroke-width:2;fill:#0f0"/><path id="path14854-57-8-0" d="m130.8 515.36v-535" clip-path="url(#clipPath3678)" style="stroke:#1a1a1a;stroke-width:2;fill:#0f0"/><path id="path14854-22-6-1-9-1" d="m155.8 515.36v-535" clip-path="url(#clipPath3674)" style="stroke:#1a1a1a;stroke-width:2;fill:#0f0"/><path id="path14854-22-1-3-7-9-6" d="m430.8 515.36v-535" clip-path="url(#clipPath3670)" style="stroke:#1a1a1a;stroke-width:2;fill:#0f0"/><path id="path14854-3-7-5" d="m105.83 515.36v-535" clip-path="url(#clipPath3666)" style="stroke:#1a1a1a;stroke-width:2;fill:#0f0"/><path id="path14854-1-1-8-7" d="m80.829 515.36v-535" clip-path="url(#clipPath3662)" style="stroke:#1a1a1a;stroke-width:2;fill:#0f0"/><path id="path14854-7-9-8-5" d="m55.829 515.36v-535" clip-path="url(#clipPath3658)" style="stroke:#1a1a1a;stroke-width:2;fill:#0f0"/><path id="path14854-11-86-2-4" d="m30.829 515.36v-535" clip-path="url(#clipPath3654)" style="stroke:#1a1a1a;stroke-width:2;fill:#0f0"/><path id="path14854-5-5-9-1" d="m5.8292 515.36v-535" clip-path="url(#clipPath3650)" style="stroke:#1a1a1a;stroke-width:2;fill:#0f0"/><path id="path14854-2-0-1-2" d="m-19.171 515.36v-535" clip-path="url(#clipPath3646)" style="stroke:#1a1a1a;stroke-width:2;fill:#0f0"/><path id="path14854-76-2-3-0" d="m-44.171 515.36v-535" clip-path="url(#clipPath3642)" style="stroke:#1a1a1a;stroke-width:2;fill:#0f0"/><path id="path14854-14-8-5-0" d="m-69.171 515.36v-535" clip-path="url(#clipPath3638)" style="stroke:#1a1a1a;stroke-width:2;fill:#0f0"/></g><g id="layer3"><path id="path16176" d="m2.0608 2.0514v332.9c0 15.963 12.805 28.769 28.769 28.769h89.374c15.963 0 28.769 12.805 28.769 28.769 0-15.963 12.933-28.769 28.896-28.769h77.739c15.963 0 28.768-12.805 28.769-28.769v-332.9z" style="stroke:#000;stroke-width:4.0915;fill:none"/></g><metadata/></svg>