<svg data-v-fde0c5aa="" xmlns="http://www.w3.org/2000/svg" viewBox="0 0 300 300" class="iconLeft"><!----><defs data-v-fde0c5aa=""><!----></defs><rect data-v-fde0c5aa="" fill="#EEF7EA" x="0" y="0" width="300px" height="300px" class="logo-background-square"></rect><defs data-v-fde0c5aa=""><!----></defs><g data-v-fde0c5aa="" id="2a0af501-10a3-4050-867e-89c8d6a37842" fill="#233B1A" transform="matrix(1.5791948427489564,0,0,1.5791948427489564,74.93414725166218,136.75055510367213)"><path d="M8.71 12.07L8.71 8.69L9.39 8.69L9.39 12.36L9.39 12.36Q8.75 12.98 7.83 13.30L7.83 13.30L7.83 13.30Q6.92 13.62 5.89 13.62L5.89 13.62L5.89 13.62Q4.44 13.62 3.27 12.98L3.27 12.98L3.27 12.98Q2.10 12.33 1.44 11.20L1.44 11.20L1.44 11.20Q0.77 10.07 0.77 8.65L0.77 8.65L0.77 8.65Q0.77 7.24 1.44 6.10L1.44 6.10L1.44 6.10Q2.10 4.97 3.27 4.33L3.27 4.33L3.27 4.33Q4.44 3.68 5.91 3.68L5.91 3.68L5.91 3.68Q6.99 3.68 7.89 4.02L7.89 4.02L7.89 4.02Q8.79 4.37 9.44 5.03L9.44 5.03L8.99 5.50L8.99 5.50Q8.37 4.89 7.61 4.61L7.61 4.61L7.61 4.61Q6.85 4.34 5.92 4.34L5.92 4.34L5.92 4.34Q4.66 4.34 3.65 4.90L3.65 4.90L3.65 4.90Q2.63 5.46 2.06 6.45L2.06 6.45L2.06 6.45Q1.48 7.43 1.48 8.65L1.48 8.65L1.48 8.65Q1.48 9.86 2.06 10.84L2.06 10.84L2.06 10.84Q2.65 11.83 3.65 12.40L3.65 12.40L3.65 12.40Q4.66 12.96 5.92 12.96L5.92 12.96L5.92 12.96Q7.60 12.96 8.71 12.07L8.71 12.07ZM14.77 6.19L14.77 6.19Q16.13 6.19 16.86 6.88L16.86 6.88L16.86 6.88Q17.58 7.57 17.58 8.92L17.58 8.92L17.58 13.55L16.91 13.55L16.91 12.25L16.91 12.25Q16.56 12.89 15.89 13.25L15.89 13.25L15.89 13.25Q15.22 13.61 14.28 13.61L14.28 13.61L14.28 13.61Q13.06 13.61 12.36 13.03L12.36 13.03L12.36 13.03Q11.65 12.46 11.65 11.52L11.65 11.52L11.65 11.52Q11.65 10.61 12.30 10.04L12.30 10.04L12.30 10.04Q12.95 9.48 14.38 9.48L14.38 9.48L16.88 9.48L16.88 8.89L16.88 8.89Q16.88 7.87 16.33 7.34L16.33 7.34L16.33 7.34Q15.78 6.80 14.71 6.80L14.71 6.80L14.71 6.80Q13.99 6.80 13.32 7.06L13.32 7.06L13.32 7.06Q12.66 7.31 12.19 7.73L12.19 7.73L11.84 7.22L11.84 7.22Q12.39 6.73 13.16 6.46L13.16 6.46L13.16 6.46Q13.93 6.19 14.77 6.19L14.77 6.19ZM14.38 13.03L14.38 13.03Q15.29 13.03 15.93 12.61L15.93 12.61L15.93 12.61Q16.56 12.19 16.88 11.40L16.88 11.40L16.88 10.02L14.39 10.02L14.39 10.02Q13.31 10.02 12.83 10.42L12.83 10.42L12.83 10.42Q12.35 10.81 12.35 11.49L12.35 11.49L12.35 11.49Q12.35 12.21 12.88 12.62L12.88 12.62L12.88 12.62Q13.41 13.03 14.38 13.03L14.38 13.03ZM21.14 7.84L21.14 7.84Q21.48 7.04 22.19 6.61L22.19 6.61L22.19 6.61Q22.90 6.19 23.93 6.19L23.93 6.19L23.93 6.87L23.76 6.86L23.76 6.86Q22.54 6.86 21.85 7.62L21.85 7.62L21.85 7.62Q21.17 8.39 21.17 9.74L21.17 9.74L21.17 13.55L20.47 13.55L20.47 6.24L21.14 6.24L21.14 7.84ZM31.78 3.16L32.48 3.16L32.48 13.55L31.79 13.55L31.79 11.83L31.79 11.83Q31.36 12.68 30.58 13.15L30.58 13.15L30.58 13.15Q29.79 13.61 28.80 13.61L28.80 13.61L28.80 13.61Q27.78 13.61 26.95 13.13L26.95 13.13L26.95 13.13Q26.12 12.66 25.66 11.82L25.66 11.82L25.66 11.82Q25.19 10.98 25.19 9.90L25.19 9.90L25.19 9.90Q25.19 8.82 25.66 7.97L25.66 7.97L25.66 7.97Q26.12 7.13 26.95 6.66L26.95 6.66L26.95 6.66Q27.78 6.19 28.80 6.19L28.80 6.19L28.80 6.19Q29.78 6.19 30.55 6.65L30.55 6.65L30.55 6.65Q31.33 7.11 31.78 7.94L31.78 7.94L31.78 3.16ZM28.84 12.98L28.84 12.98Q29.68 12.98 30.34 12.59L30.34 12.59L30.34 12.59Q31.01 12.19 31.39 11.49L31.39 11.49L31.39 11.49Q31.78 10.79 31.78 9.90L31.78 9.90L31.78 9.90Q31.78 9.00 31.39 8.30L31.39 8.30L31.39 8.30Q31.01 7.60 30.34 7.21L30.34 7.21L30.34 7.21Q29.68 6.82 28.84 6.82L28.84 6.82L28.84 6.82Q28 6.82 27.34 7.21L27.34 7.21L27.34 7.21Q26.67 7.60 26.29 8.30L26.29 8.30L26.29 8.30Q25.90 9.00 25.90 9.90L25.90 9.90L25.90 9.90Q25.90 10.79 26.29 11.49L26.29 11.49L26.29 11.49Q26.67 12.19 27.34 12.59L27.34 12.59L27.34 12.59Q28 12.98 28.84 12.98L28.84 12.98ZM41.62 9.87L41.61 10.07L35.32 10.07L35.32 10.07Q35.35 10.92 35.76 11.58L35.76 11.58L35.76 11.58Q36.16 12.25 36.86 12.61L36.86 12.61L36.86 12.61Q37.55 12.98 38.42 12.98L38.42 12.98L38.42 12.98Q39.13 12.98 39.74 12.72L39.74 12.72L39.74 12.72Q40.35 12.46 40.75 11.96L40.75 11.96L41.16 12.42L41.16 12.42Q40.68 12.99 39.96 13.30L39.96 13.30L39.96 13.30Q39.24 13.61 38.40 13.61L38.40 13.61L38.40 13.61Q37.31 13.61 36.46 13.13L36.46 13.13L36.46 13.13Q35.60 12.66 35.12 11.82L35.12 11.82L35.12 11.82Q34.64 10.98 34.64 9.90L34.64 9.90L34.64 9.90Q34.64 8.83 35.09 7.99L35.09 7.99L35.09 7.99Q35.55 7.14 36.34 6.66L36.34 6.66L36.34 6.66Q37.14 6.19 38.14 6.19L38.14 6.19L38.14 6.19Q39.13 6.19 39.92 6.66L39.92 6.66L39.92 6.66Q40.71 7.13 41.17 7.97L41.17 7.97L41.17 7.97Q41.62 8.81 41.62 9.87L41.62 9.87ZM38.14 6.80L38.14 6.80Q37.37 6.80 36.75 7.15L36.75 7.15L36.75 7.15Q36.13 7.49 35.76 8.11L35.76 8.11L35.76 8.11Q35.39 8.74 35.34 9.52L35.34 9.52L40.94 9.52L40.94 9.52Q40.89 8.74 40.52 8.12L40.52 8.12L40.52 8.12Q40.14 7.50 39.52 7.15L39.52 7.15L39.52 7.15Q38.91 6.80 38.14 6.80L38.14 6.80ZM47.36 6.19L47.36 6.19Q48.73 6.19 49.53 6.99L49.53 6.99L49.53 6.99Q50.33 7.78 50.33 9.28L50.33 9.28L50.33 13.55L49.63 13.55L49.63 9.34L49.63 9.34Q49.63 8.11 49.01 7.46L49.01 7.46L49.01 7.46Q48.38 6.82 47.26 6.82L47.26 6.82L47.26 6.82Q45.98 6.82 45.23 7.59L45.23 7.59L45.23 7.59Q44.49 8.36 44.49 9.66L44.49 9.66L44.49 13.55L43.79 13.55L43.79 6.24L44.46 6.24L44.46 7.83L44.46 7.83Q44.84 7.06 45.59 6.62L45.59 6.62L45.59 6.62Q46.34 6.19 47.36 6.19L47.36 6.19ZM64.36 13.55L63.10 10.79L57.41 10.79L56.17 13.55L55.40 13.55L59.91 3.75L60.62 3.75L65.13 13.55L64.36 13.55ZM57.69 10.19L62.83 10.19L60.26 4.54L57.69 10.19ZM68.53 13.61L68.53 13.61Q67.65 13.61 66.85 13.34L66.85 13.34L66.85 13.34Q66.05 13.08 65.60 12.67L65.60 12.67L65.93 12.11L65.93 12.11Q66.37 12.49 67.08 12.74L67.08 12.74L67.08 12.74Q67.79 12.99 68.56 12.99L68.56 12.99L68.56 12.99Q69.66 12.99 70.19 12.63L70.19 12.63L70.19 12.63Q70.71 12.26 70.71 11.62L70.71 11.62L70.71 11.62Q70.71 11.16 70.43 10.89L70.43 10.89L70.43 10.89Q70.14 10.63 69.72 10.50L69.72 10.50L69.72 10.50Q69.30 10.37 68.56 10.23L68.56 10.23L68.56 10.23Q67.69 10.08 67.16 9.90L67.16 9.90L67.16 9.90Q66.63 9.72 66.25 9.31L66.25 9.31L66.25 9.31Q65.87 8.90 65.87 8.19L65.87 8.19L65.87 8.19Q65.87 7.32 66.59 6.75L66.59 6.75L66.59 6.75Q67.31 6.19 68.64 6.19L68.64 6.19L68.64 6.19Q69.34 6.19 70.03 6.38L70.03 6.38L70.03 6.38Q70.71 6.58 71.15 6.90L71.15 6.90L70.83 7.46L70.83 7.46Q70.38 7.14 69.80 6.97L69.80 6.97L69.80 6.97Q69.23 6.80 68.63 6.80L68.63 6.80L68.63 6.80Q67.61 6.80 67.09 7.18L67.09 7.18L67.09 7.18Q66.57 7.56 66.57 8.18L66.57 8.18L66.57 8.18Q66.57 8.67 66.86 8.94L66.86 8.94L66.86 8.94Q67.16 9.21 67.59 9.34L67.59 9.34L67.59 9.34Q68.01 9.48 68.78 9.63L68.78 9.63L68.78 9.63Q69.64 9.79 70.16 9.96L70.16 9.96L70.16 9.96Q70.69 10.14 71.05 10.53L71.05 10.53L71.05 10.53Q71.41 10.92 71.41 11.61L71.41 11.61L71.41 11.61Q71.41 12.52 70.66 13.06L70.66 13.06L70.66 13.06Q69.90 13.61 68.53 13.61L68.53 13.61ZM75.22 13.61L75.22 13.61Q74.34 13.61 73.54 13.34L73.54 13.34L73.54 13.34Q72.74 13.08 72.30 12.67L72.30 12.67L72.62 12.11L72.62 12.11Q73.07 12.49 73.77 12.74L73.77 12.74L73.77 12.74Q74.48 12.99 75.25 12.99L75.25 12.99L75.25 12.99Q76.36 12.99 76.88 12.63L76.88 12.63L76.88 12.63Q77.41 12.26 77.41 11.62L77.41 11.62L77.41 11.62Q77.41 11.16 77.12 10.89L77.12 10.89L77.12 10.89Q76.83 10.63 76.41 10.50L76.41 10.50L76.41 10.50Q75.99 10.37 75.25 10.23L75.25 10.23L75.25 10.23Q74.38 10.08 73.85 9.90L73.85 9.90L73.85 9.90Q73.32 9.72 72.94 9.31L72.94 9.31L72.94 9.31Q72.56 8.90 72.56 8.19L72.56 8.19L72.56 8.19Q72.56 7.32 73.28 6.75L73.28 6.75L73.28 6.75Q74.00 6.19 75.33 6.19L75.33 6.19L75.33 6.19Q76.03 6.19 76.72 6.38L76.72 6.38L76.72 6.38Q77.41 6.58 77.84 6.90L77.84 6.90L77.52 7.46L77.52 7.46Q77.07 7.14 76.50 6.97L76.50 6.97L76.50 6.97Q75.92 6.80 75.32 6.80L75.32 6.80L75.32 6.80Q74.30 6.80 73.78 7.18L73.78 7.18L73.78 7.18Q73.26 7.56 73.26 8.18L73.26 8.18L73.26 8.18Q73.26 8.67 73.56 8.94L73.56 8.94L73.56 8.94Q73.85 9.21 74.28 9.34L74.28 9.34L74.28 9.34Q74.70 9.48 75.47 9.63L75.47 9.63L75.47 9.63Q76.33 9.79 76.85 9.96L76.85 9.96L76.85 9.96Q77.38 10.14 77.74 10.53L77.74 10.53L77.74 10.53Q78.11 10.92 78.11 11.61L78.11 11.61L78.11 11.61Q78.11 12.52 77.35 13.06L77.35 13.06L77.35 13.06Q76.59 13.61 75.22 13.61L75.22 13.61ZM80.07 13.55L80.07 6.24L80.77 6.24L80.77 13.55L80.07 13.55ZM80.42 4.47L80.42 4.47Q80.18 4.47 80.01 4.30L80.01 4.30L80.01 4.30Q79.84 4.14 79.84 3.91L79.84 3.91L79.84 3.91Q79.84 3.67 80.01 3.50L80.01 3.50L80.01 3.50Q80.18 3.33 80.42 3.33L80.42 3.33L80.42 3.33Q80.65 3.33 80.82 3.49L80.82 3.49L80.82 3.49Q80.99 3.65 80.99 3.89L80.99 3.89L80.99 3.89Q80.99 4.13 80.82 4.30L80.82 4.30L80.82 4.30Q80.65 4.47 80.42 4.47L80.42 4.47ZM85.57 13.61L85.57 13.61Q84.69 13.61 83.89 13.34L83.89 13.34L83.89 13.34Q83.09 13.08 82.64 12.67L82.64 12.67L82.96 12.11L82.96 12.11Q83.41 12.49 84.12 12.74L84.12 12.74L84.12 12.74Q84.83 12.99 85.60 12.99L85.60 12.99L85.60 12.99Q86.70 12.99 87.23 12.63L87.23 12.63L87.23 12.63Q87.75 12.26 87.75 11.62L87.75 11.62L87.75 11.62Q87.75 11.16 87.47 10.89L87.47 10.89L87.47 10.89Q87.18 10.63 86.76 10.50L86.76 10.50L86.76 10.50Q86.34 10.37 85.60 10.23L85.60 10.23L85.60 10.23Q84.73 10.08 84.20 9.90L84.20 9.90L84.20 9.90Q83.66 9.72 83.29 9.31L83.29 9.31L83.29 9.31Q82.91 8.90 82.91 8.19L82.91 8.19L82.91 8.19Q82.91 7.32 83.63 6.75L83.63 6.75L83.63 6.75Q84.35 6.19 85.68 6.19L85.68 6.19L85.68 6.19Q86.38 6.19 87.07 6.38L87.07 6.38L87.07 6.38Q87.75 6.58 88.19 6.90L88.19 6.90L87.86 7.46L87.86 7.46Q87.42 7.14 86.84 6.97L86.84 6.97L86.84 6.97Q86.27 6.80 85.67 6.80L85.67 6.80L85.67 6.80Q84.64 6.80 84.13 7.18L84.13 7.18L84.13 7.18Q83.61 7.56 83.61 8.18L83.61 8.18L83.61 8.18Q83.61 8.67 83.90 8.94L83.90 8.94L83.90 8.94Q84.20 9.21 84.62 9.34L84.62 9.34L84.62 9.34Q85.05 9.48 85.82 9.63L85.82 9.63L85.82 9.63Q86.67 9.79 87.20 9.96L87.20 9.96L87.20 9.96Q87.72 10.14 88.09 10.53L88.09 10.53L88.09 10.53Q88.45 10.92 88.45 11.61L88.45 11.61L88.45 11.61Q88.45 12.52 87.70 13.06L87.70 13.06L87.70 13.06Q86.94 13.61 85.57 13.61L85.57 13.61ZM93.74 12.60L94.04 13.09L94.04 13.09Q93.77 13.34 93.37 13.47L93.37 13.47L93.37 13.47Q92.97 13.61 92.54 13.61L92.54 13.61L92.54 13.61Q91.59 13.61 91.07 13.08L91.07 13.08L91.07 13.08Q90.55 12.56 90.55 11.62L90.55 11.62L90.55 6.85L89.21 6.85L89.21 6.24L90.55 6.24L90.55 4.65L91.25 4.65L91.25 6.24L93.58 6.24L93.58 6.85L91.25 6.85L91.25 11.55L91.25 11.55Q91.25 12.26 91.60 12.63L91.60 12.63L91.60 12.63Q91.94 13.01 92.61 13.01L92.61 13.01L92.61 13.01Q93.30 13.01 93.74 12.60L93.74 12.60ZM98.45 6.19L98.45 6.19Q99.81 6.19 100.53 6.88L100.53 6.88L100.53 6.88Q101.26 7.57 101.26 8.92L101.26 8.92L101.26 13.55L100.59 13.55L100.59 12.25L100.59 12.25Q100.24 12.89 99.57 13.25L99.57 13.25L99.57 13.25Q98.90 13.61 97.96 13.61L97.96 13.61L97.96 13.61Q96.74 13.61 96.03 13.03L96.03 13.03L96.03 13.03Q95.33 12.46 95.33 11.52L95.33 11.52L95.33 11.52Q95.33 10.61 95.98 10.04L95.98 10.04L95.98 10.04Q96.63 9.48 98.06 9.48L98.06 9.48L100.56 9.48L100.56 8.89L100.56 8.89Q100.56 7.87 100.01 7.34L100.01 7.34L100.01 7.34Q99.46 6.80 98.39 6.80L98.39 6.80L98.39 6.80Q97.66 6.80 97.00 7.06L97.00 7.06L97.00 7.06Q96.33 7.31 95.87 7.73L95.87 7.73L95.52 7.22L95.52 7.22Q96.07 6.73 96.84 6.46L96.84 6.46L96.84 6.46Q97.61 6.19 98.45 6.19L98.45 6.19ZM98.06 13.03L98.06 13.03Q98.97 13.03 99.60 12.61L99.60 12.61L99.60 12.61Q100.24 12.19 100.56 11.40L100.56 11.40L100.56 10.02L98.07 10.02L98.07 10.02Q96.99 10.02 96.51 10.42L96.51 10.42L96.51 10.42Q96.03 10.81 96.03 11.49L96.03 11.49L96.03 11.49Q96.03 12.21 96.56 12.62L96.56 12.62L96.56 12.62Q97.09 13.03 98.06 13.03L98.06 13.03ZM107.72 6.19L107.72 6.19Q109.09 6.19 109.89 6.99L109.89 6.99L109.89 6.99Q110.68 7.78 110.68 9.28L110.68 9.28L110.68 13.55L109.98 13.55L109.98 9.34L109.98 9.34Q109.98 8.11 109.36 7.46L109.36 7.46L109.36 7.46Q108.74 6.82 107.62 6.82L107.62 6.82L107.62 6.82Q106.33 6.82 105.59 7.59L105.59 7.59L105.59 7.59Q104.85 8.36 104.85 9.66L104.85 9.66L104.85 13.55L104.15 13.55L104.15 6.24L104.82 6.24L104.82 7.83L104.82 7.83Q105.20 7.06 105.95 6.62L105.95 6.62L105.95 6.62Q106.69 6.19 107.72 6.19L107.72 6.19ZM116.90 12.60L117.19 13.09L117.19 13.09Q116.93 13.34 116.53 13.47L116.53 13.47L116.53 13.47Q116.13 13.61 115.70 13.61L115.70 13.61L115.70 13.61Q114.74 13.61 114.23 13.08L114.23 13.08L114.23 13.08Q113.71 12.56 113.71 11.62L113.71 11.62L113.71 6.85L112.36 6.85L112.36 6.24L113.71 6.24L113.71 4.65L114.41 4.65L114.41 6.24L116.73 6.24L116.73 6.85L114.41 6.85L114.41 11.55L114.41 11.55Q114.41 12.26 114.75 12.63L114.75 12.63L114.75 12.63Q115.09 13.01 115.77 13.01L115.77 13.01L115.77 13.01Q116.45 13.01 116.90 12.60L116.90 12.60Z"></path></g><defs data-v-fde0c5aa=""><linearGradient data-v-fde0c5aa="" gradientTransform="rotate(25)" id="658562f9-210e-409f-ae90-8861d82ca4ba" x1="0%" y1="0%" x2="100%" y2="0%"><stop data-v-fde0c5aa="" offset="0%" stop-color="#2F8632" stop-opacity="1"></stop><stop data-v-fde0c5aa="" offset="100%" stop-color="#BEFF7F" stop-opacity="1"></stop></linearGradient></defs><g data-v-fde0c5aa="" id="11ee6ddd-a4c2-4462-83e5-26d7067836b3" stroke="none" fill="url(#658562f9-210e-409f-ae90-8861d82ca4ba)" transform="matrix(0.3209863585182307,0,0,0.3209863585182307,35.526239159028535,133.87787656302916)"><path d="M33.077 27.942c.308.153.655.326 1.019.509l2.296 1.126c-.355.492-.624.957-1.707 2.325-2.138 2.7-6.077 7.674-5.849 11.137 1.032-.202 3.505-1.689 5.196-2.708 3.144-1.893 6.113-3.681 8.296-3.681h.021c3.32.019 4.741 4.207 5.995 7.902.39 1.147.937 2.764 1.39 3.533.29-1.005.449-3.068.554-4.402.16-2.062.312-4.011.776-5.299 1.152-3.18 7.52-1.705 16.391.726.699.192 1.356.372 1.94.526-1.333-1.716-3.746-4.327-5.234-5.937-1.702-1.842-3.068-3.564-3.676-4.433.51-.333 1.079-.684 1.541-.969 2.598-1.598 4.086-2.562 4.461-3.797a1.757 1.757 0 0 0-.2-1.457c-.505-.783-1.456-.909-1.77-.951-3.062-.406-12.854 1.427-16.77 2.67.408-4.805 1.972-8.129-.823-12.009-1.954-2.711-4.21.099-2.819 2.03 1.934 2.683.659 4.966.126 10.278-.176-.076-.367-.16-.57-.25-1.188-.526-2.81-1.245-5.365-2.023-1.621-.494-3.142-.837-4.518-1.02-3.556-.471-5.159.257-5.443.408l-.421.223-.218.423a1.753 1.753 0 0 0-.101 1.358c.369 1.133 1.719 1.889 5.482 3.762z"></path><path d="M64.999 30.876c.305.375.63.759.982 1.14 6.025 6.517 7.434 8.346 6.631 9.766-.171.302-.702.978-1.976.715-.9-.186-2.263-.56-3.84-.992-2.559-.702-5.742-1.574-8.477-2.069-3.877-.702-4.794-.256-4.939-.159-.34.984-.482 2.821-.62 4.599-.282 3.629-.521 5.895-1.837 6.745-.316.204-.67.309-1.038.309-.237 0-.479-.043-.718-.131-1.512-.544-2.246-2.709-3.175-5.449-.889-2.62-2.107-6.208-3.657-6.217h-.01c-1.491 0-4.553 1.844-7.014 3.326-3.892 2.343-6.17 3.631-7.759 2.86-.373-.181-1.021-.647-1.157-1.729-.544-4.326 3.424-9.534 6.028-12.831-9.964 4.359-16.742 12.703-18.205 22.458-.977 6.518.7 15.043 3.456 19.47 3.283 5.271 8.783 9.41 16.951 12.261 3.91 1.364 9.208 2.862 14.19 3.516 19.747 2.594 34.822-9.172 37.02-25.753 1.754-13.227-6.924-25.96-20.836-31.835zm15.697 31.13c-.329 1.646-1.117 4.933-2.694 8.439-2.689 5.977-8.595 8.816-9.785 8.659h-.001a1.04 1.04 0 0 1-.29-.082.915.915 0 0 1-.542-.742c-.063-.601.312-.879 1.219-1.551 1.58-1.169 4.87-3.603 6.666-7.595 1.479-3.288 2.409-6.67 3.026-8.907.725-2.633.943-3.426 1.915-3.298l.129.018.137.058c.447.203 1.122.506.22 5.001z"></path></g><!----></svg>